<?xml version="1.0" encoding="UTF-8"?>
<svg viewBox="0 0 640 480" xmlns="http://www.w3.org/2000/svg" xmlns:xlink="http://www.w3.org/1999/xlink">
 <defs>
  <linearGradient id="a">
   <stop stop-color="#853c00" stop-opacity=".743" offset="0"/>
   <stop stop-color="#5e0000" stop-opacity="0" offset="1"/>
  </linearGradient>
  <linearGradient id="d" x1=".51302" x2=".3125" y1=".39844" y2=".78906" xlink:href="#a"/>
  <linearGradient id="e" x1=".72066" x2=".28404" y1=".63208" y2=".63208" xlink:href="#a"/>
 </defs>
 <g fill-rule="evenodd" stroke-width="1.25">
  <path d="m355.95 375.79c-15.403 6.6798-30.573 15.422-47.776 16.006-26.443 4.3608-53.051 8.6552-79.93 8.3219-35.725 1.6396-71.625 0.55362-107.14-3.6267-19.228-2.8899-38.476-6.0432-57.49-10.009-17.68-5.0339-35.38-10.018-52.892-15.62 0.87745 14.313 0.61718 30.661 11.305 41.684 6.1925 15.318 24.166 17.785 37.333 24.278 20.131 9.5751 42.99 8.9675 64.315 14.175 27 4.6182 54.506 5.0906 81.831 5.1156 20.817-0.67316 41.72-1.7982 62.404-3.8143 20.448-5.3468 42.932-5.4898 61.17-17.278 9.4781-4.8195 23.663-7.7226 25.508-20.205 1.6282-10.952 5.0128-22.088 2.5903-33.308-0.31433-1.9252-0.72543-3.8344-1.2262-5.7196z" fill="#eab033"/>
  <path d="m14.166 372l-3.9047-4.6949-1.5619-19.562 10.152-3.9125-0.781-7.0424 26.552 4.6949 57.009 3.13 11.714-2.3474 14.838 10.955 26.552 1.565 35.923 3.1299 46.076-3.1299 24.99-7.8249 32.8-0.7825 48.418-0.7825 17.962-3.9125 6.2476 7.8249 1.5619 14.085-10.152 14.867-40.609 14.085-65.599 10.172h-55.447l-54.666-3.13-57.009-7.0424-21.086-4.6949-49.98-15.65z" fill="#7f0000"/>
  <g fill="#eeeee0">
   <path d="m18.852 337.8l-3.9047-12.575 2.3428-17.815 28.895 18.863 38.266 5.2397 32.019 2.0959-0.7809 11.527-16.4 3.1438-31.238-2.0959-31.238-5.2397-17.962-3.1438z"/>
   <path d="m117.33 328.86l-1.6453 16.464 10.694 9.2608 37.841 5.1449 39.487 2.058 31.26-2.058 26.324-10.29v-19.55l-28.792 1.029-37.019 2.058-31.26-1.029-29.615-1.029-17.275-2.058z"/>
   <path d="m253.14 332.16l0.7809 14.968 27.333 0.9355 41.39 1.871 31.238-4.6774 8.5904-3.7419 3.9047-18.71-15.619 5.6129-28.895 2.8065h-28.114l-24.209 0.9355-10.933-1.8709-2.3428-0.9355-3.1238 2.8065z"/>
  </g>
  <g fill="#eb3d33">
   <path d="m12.29 312.81l1.5619-26.077 47.638 14.901 57.79 4.6566 53.104-0.9313 8.5904 1.8626 0.781 22.351v5.5879l-41.39 0.9313-26.552-3.7253-3.9047 3.7253-38.266-2.7939-31.238-0.9313-28.114-19.558z"/>
   <path d="m180.72 314.58l44.871 16.952 17.628 5.0856 9.6153 1.6952h84.935l25.641-6.7808 7.2115-11.019-7.2115-23.733-22.436 12.714-25.641 2.5428-31.25-0.8476-19.231-4.238-38.461-2.5428-22.436-8.476-16.026-2.5428-11.218 15.257 8.0128 7.6284-4.0064-1.6952z"/>
  </g>
  <path d="m180.97 316.2v22.692h43.733l24.209-2.3475-34.362-10.955-22.647-7.8249-10.933-1.565z" fill="#ba3d33"/>
  <path d="m356.22 378.48l-39.828 14.867-59.352 7.8249-53.104 1.565 76.532 1.565 53.104-10.172 17.962-3.13 2.3428 18.78-1.5619 10.172 6.2475-25.822-2.3428-15.65z" fill-opacity=".525"/>
  <path d="m356.3 376.88c-17.414 8.5952-35.484 16.113-55.099 17.17-47.28 8.6562-95.644 8.9473-143.51 6.6572-35.171-1.8498-70.289-7.3723-104.35-16.159-13.185-1.9428-33.581-13.267-42.109-9.9322-0.66025 17.934 5.142 35.61 17.758 48.416 16.579 10.7 35.88 17.892 55.093 22.344 33.356 5.4124 66.635 12.058 100.6 11.695 28.468 0.59308 57.146-0.9484 85.357-4.1278 21.489-4.7286 44.309-6.4645 63.278-18.628 22.951-4.1174 25.786-29.169 24.66-48.327-0.31726-3.076-0.88461-6.1231-1.6782-9.1099z" fill="url(#e)"/>
  <path d="m12.59 374.09l4.2377 30.655 23.308 27.428-14.832-30.655 4.2378-16.134 80.516 12.907-97.468-24.201z" fill-opacity=".356"/>
  <path d="m53.198 388.57l42.312 9.8594 60.023 8.8734 67.895 1.9719 46.248-5.9156-32.472-0.9859h-48.216l-72.815-5.9156-50.184-7.8875h-12.792z" fill-opacity=".456"/>
  <path d="m9.9022 349.14l2.952 19.719 48.216 17.747 13.776 3.9438-6.8879-23.662 18.696 0.9859 30.504 2.9578 7.8719 6.9015 3.936 15.775 3.936 3.9437h9.8399v-16.761l8.8559-10.845 23.616 3.9438 1.968 6.9015 19.68-2.9578 17.712-1.9719 1.968 11.831-1.968 9.8593-0.984 3.9438h15.744l-0.984-17.747 8.8559-7.8875 1.968 2.9578h5.9039l5.9039-3.9438 9.8399 9.8594 3.936 9.8594 6.8879 4.9297 42.312-4.9297 35.424-12.817 5.9039-3.9438 10.824-16.761-0.984-12.817-3.936-3.9438-18.696 2.9578-18.696 0.9859-61.007-0.9859-25.584 8.8734-47.232 3.9438-63.959-4.9297-12.792-12.817-9.8399 3.9437-62.975-1.9719-21.648-5.9156 0.984 6.9016-9.8399 3.9437z" fill-opacity=".531"/>
  <g fill-opacity=".422">
   <path d="m116.17 334.35l-1.968 7.8875-12.792 2.9578h-33.456l31.488-1.9719 7.8719-7.8875-2.952-0.9859-10.824-2.9578 22.632 2.9578z"/>
   <path d="m262.79 334.35l1.968 10.845-14.76 5.9156-13.776 5.9156-17.712 0.9859 27.552-6.9015 9.8399-8.8734-1.968-8.8734h-6.8879l15.744 0.9859z"/>
   <path d="m367.09 326.46l0.984 8.8734-3.936 7.8875-16.728 3.9438-30.504 0.9859 37.392-4.9297 6.8879-2.9578-0.984-6.9016-6.8879-2.9578-1.968-0.9859 5.9039-1.9719 9.8399-0.986z"/>
   <path d="m18.758 314.63l-1.968 8.8734 1.968 13.803 15.744 3.9437s-3.936-1.9719-7.8719-6.9016c-3.936-4.9297-4.92-7.8875-4.92-7.8875l-2.952-11.831z"/>
  </g>
  <g fill-opacity=".25">
   <path d="m17.774 293.92l0.984 18.733 26.568 18.733 15.744-1.9719-12.792-9.8594-5.9039-14.789-4.92-6.9016-9.8399 0.9859-9.8399-4.9297z"/>
   <path d="m90.589 309.7l23.616 3.9437 22.632 0.986 26.568 1.9719 11.808 2.9578 9.8399 10.845 0.984-20.705-12.792-2.9578-38.376 0.986-39.36-0.986-4.92 2.9578z"/>
  </g>
  <path d="m28.223 236.85l-6.2475-5.4774-7.8094 0.7825 6.2475 10.955-11.714 1.565 2.3428 7.0424 5.4666 0.7825-6.2476 6.2599-5.4666 4.6949 4.6857 3.1299 7.0285 0.7825-5.4666 10.172-5.4666 5.4774s0.78094 5.4774 3.9047 5.4774h12.495l-1.5619 7.8249 6.2476 3.9125 9.3713-3.9125 7.8094 9.3899 2.3428 0.7825 11.714-6.2599 10.152 7.0424 12.495 0.7825 20.304 1.565 7.0285-8.6074 4.6857 12.52 5.4666-10.172 14.057 4.6949 4.6857 3.13s16.4-4.695 19.524-4.695c3.1238 0 15.619 1.565 15.619 1.565l2.3428 9.3899 12.495-10.172 9.3713-10.955 19.524 9.3899 3.9047-9.3899 7.0285 10.172 11.714 2.3475 7.8094-3.13 8.5904 14.085s15.619 14.867 17.962 11.737c2.3428-3.13 16.4-17.215 16.4-17.215l16.4 3.1299 7.0285-4.6949 16.4 3.13 7.8094-3.9124 7.8094-3.9125 13.276 5.4774 3.9047-10.955 4.6857-4.6949s7.0285 1.565 7.0285-2.3475-0.78094-10.955-0.78094-10.955-5.4666-0.7825-5.4666-3.9124 3.9047-10.955 3.9047-10.955l-3.1238-7.0424 2.3428-7.8249-7.8094-1.565s-65.599-1.565-68.723-0.7825c-3.1238 0.7825-99.18-0.78247-99.18-0.78247h-86.685l-35.142-2.3475-30.457-3.9124-14.057-8.6074z" fill="#4fbe33"/>
  <path d="m344.46 309.7l8.8559 4.9297-4.92 5.9156-12.792 7.8875-3.936 2.9578 19.68-3.9437 14.76-3.9438 4.92-9.8594-3.936-15.775-5.9039 5.9156-2.952 8.8734-13.776-2.9578z" fill-opacity=".362"/>
  <path d="m186.04 311.68l-0.984 19.719h11.808l23.616 1.9719h12.792l-15.744-7.8875-10.824-7.8875-7.8719-5.9156-7.8719-4.9297h-3.936l-0.984 4.9297z" fill-opacity=".216"/>
  <path d="m330.68 263.36l0.984 5.9156 11.808 1.9719 5.9039-2.9578 12.792-7.8875-15.744 0.9859-5.9039 0.986-3.936-0.986-5.9039 1.9719z" fill-opacity=".456"/>
  <path d="m186.1 67.214c-25.704 2.9541-52.067 4.6056-76.285 14.528-17.649 4.9225-35.758 10.099-50.532 21.436-12.837 8.0089-27.014 16.281-33.66 30.591-1.9163 10.515-5.4076 24.32 4.26 32.12 17.76 9.298 38.512 6.099 57.73 8.644 55.419 2.859 110.96 1.401 166.38 4.283 34.316 0.34201 68.655-1.987 102.95 0.061005 0.72699-19.24-10.33-35.922-16.483-53.452-6.112-11.324-18.954-16.032-28.153-24.331-11.491-8.8003-25.298-13.647-39.36-16.357-28.62-7.3526-57.671-12.913-86.847-17.522z" fill="#eab033"/>
  <path d="m186.38 68.594c-24.469 3.0302-49.64 4.1-72.796 13.41-19.549 5.6038-39.757 11.17-56.03 23.987-13.397 8.7419-30.879 17.532-33.154 35.256-1.9014 10.718-0.4981 25.779 11.57 29.746 60.211 9.0265 121.38 5.17 182.01 8.1695 42.533 2.185 85.132-0.35646 127.67 0.66597 7.7959 2.8981 16.067-2.5076 10.644-10.777-4.32-16.678-10.349-33.053-19.337-47.803-11.962-10.397-25.038-19.679-38.824-27.408-36.064-12.812-74.2-18.66-111.76-25.246z" fill="url(#d)"/>
  <g fill-opacity=".287">
   <path d="m25.582 159.75v-28.592l19.68-16.761 19.68-13.803-19.68 20.705-8.8559 17.747 6.8879 19.719 12.792 7.8875 23.616 4.9297 21.648 3.9438h-35.424l-23.616-2.9578-10.824-5.9156-5.9039-6.9016z"/>
   <path d="m331.6 115.39l5.9039 12.817 7.8719 21.691v13.803l-3.936 10.845-10.824 2.9578h29.52l-5.9039-18.733-7.8719-19.719-8.8559-19.719-5.9039-3.9438z"/>
  </g>
  <g fill="#fff" fill-opacity=".444">
   <path d="m165.17 82.61l-7.3437 2.8543 1.4687 3.5679 5.875-0.7136v-5.7086z"/>
   <path d="m173.98 89.389l-7.3438 2.8543 1.4688 3.5679 5.875-0.7136v-5.7086z"/>
   <path d="m176.92 82.253l-7.3438 2.8543 1.4688 3.5679 5.875-0.7136v-5.7086z"/>
   <path d="m186.46 87.961l-7.3438 2.8543 1.4688 3.5679 5.875-0.7136v-5.7086z"/>
   <path d="m150.11 95.454l-7.3437 2.8543 1.4688 3.5679 5.875-0.7136v-5.7086z"/>
   <path d="m197.85 128.64l-7.3437 2.8543 1.4688 3.5679 5.875-0.7136v-5.7087z"/>
   <path d="m185.36 110.08l-7.3438 2.8543 1.4688 3.5679 5.875-0.7136v-5.7086z"/>
   <path d="m171.41 100.81l-7.3437 2.8543 1.4688 3.5679 5.875-0.7136v-5.7087z"/>
   <path d="m186.83 100.45l-7.3438 2.8543 1.4688 3.5679 5.875-0.7136v-5.7086z"/>
   <path d="m203.72 104.37l-7.3437 2.8543 1.4688 3.5679 5.875-0.7136v-5.7086z"/>
   <path d="m203.72 90.816l-7.3437 2.8543 1.4688 3.5679 5.875-0.7136v-5.7086z"/>
   <path d="m208.13 96.524l-7.3437 2.8543 1.4688 3.5679 5.875-0.7136v-5.7086z"/>
   <path d="m201.52 84.037l-7.3437 2.8543 1.4688 3.5679 5.875-0.7136v-5.7086z"/>
   <path d="m197.11 91.529l-7.3438 2.8543 1.4688 3.5679 5.875-0.7136v-5.7086z"/>
   <path d="m191.24 79.398l-7.3438 2.8543 1.4688 3.5679 5.875-0.7136v-5.7086z"/>
   <path d="m208.86 90.102l-7.3438 2.8543 1.4688 3.5679 5.875-0.7136v-5.7086z"/>
   <path d="m220.61 101.88l-7.3437 2.8543 1.4688 3.5679 5.875-0.7136v-5.7086z"/>
   <path d="m216.21 96.524l-7.3438 2.8543 1.4688 3.5679 5.875-0.7136v-5.7086z"/>
   <path d="m217.68 92.243l-7.3437 2.8543 1.4688 3.5679 5.875-0.7136v-5.7086z"/>
   <path d="m200.05 96.524l-7.3437 2.8543 1.4688 3.5679 5.875-0.7136v-5.7086z"/>
   <path d="m173.98 99.022l-7.3438 2.8543 1.4688 3.5679 5.875-0.7136v-5.7086z"/>
   <path d="m182.79 105.8l-7.3437 2.8543 1.4688 3.5679 5.875-0.7136v-5.7086z"/>
   <path d="m185.73 98.665l-7.3438 2.8543 1.4688 3.5679 5.875-0.7136v-5.7086z"/>
   <path d="m180.59 104.73l-5.875 6.3429 1.175 7.9287 4.7-1.5857v-12.686z"/>
   <path d="m193.81 100.81l-7.3438 2.8543 1.4688 3.5679 5.875-0.7136v-5.7087z"/>
   <path d="m196.75 93.67l-7.3437 2.8543 1.4688 3.5679 5.875-0.7136v-5.7086z"/>
   <path d="m212.17 111.87l-7.3438 2.8543 1.4688 3.5679 5.875-0.7136v-5.7086z"/>
   <path d="m220.98 118.65l-7.3438 2.8543 1.4688 3.5679 5.875-0.7136v-5.7087z"/>
   <path d="m223.92 111.51l-7.3437 2.8543 1.4688 3.5679 5.875-0.7136v-5.7086z"/>
   <path d="m227.59 100.45l-7.3437 2.8543 1.4688 3.5679 5.875-0.7136v-5.7086z"/>
   <path d="m236.4 107.23l-7.3438 2.8543 1.4688 3.5679 5.875-0.7136v-5.7086z"/>
   <path d="m239.34 100.09l-7.3438 2.8543 1.4688 3.5679 5.875-0.7136v-5.7086z"/>
   <path d="m218.78 86.178l-7.344 2.8543 1.469 3.5679 5.875-0.7136v-5.7086z"/>
   <path d="m227.59 92.956l-7.3438 2.8543 1.4688 3.5679 5.875-0.7136v-5.7086z"/>
   <path d="m230.53 85.821l-7.344 2.8543 1.469 3.5679 5.875-0.7136v-5.7086z"/>
   <path d="m238.6 93.313l-7.3438 2.8543 1.4688 3.5679 5.875-0.7136v-5.7086z"/>
   <path d="m247.42 100.09l-7.3438 2.8543 1.4688 3.5679 5.875-0.7136v-5.7086z"/>
   <path d="m250.35 92.956l-7.3437 2.8543 1.4688 3.5679 5.875-0.7136v-5.7086z"/>
   <path d="m131.39 89.745l-7.3438 2.8543 1.4688 3.5679 5.875-0.7136v-5.7086z"/>
   <path d="m133.59 103.66l-7.3437 2.8543 1.4687 3.5679 5.875-0.7136v-5.7086z"/>
   <path d="m143.14 89.389l-7.3438 2.8543 1.4688 3.5679 5.875-0.7136v-5.7086z"/>
   <path d="m136.53 106.87l-7.3438 2.8543 1.4688 3.5679 5.875-0.7136v-5.7086z"/>
   <path d="m145.34 113.65l-7.3438 2.8543 1.4688 3.5679 5.875-0.7136v-5.7086z"/>
   <path d="m138 119.36l-7.3437 2.8543 1.4688 3.5679 5.875-0.7136v-5.7086z"/>
   <path d="m151.21 130.42l-7.3437 2.8543 1.4687 3.5679 5.875-0.7136v-5.7086z"/>
   <path d="m165.9 117.93l-7.3437 2.8543 1.4688 3.5679 5.875-0.7136v-5.7086z"/>
   <path d="m171.04 119.36l-7.3438 2.8543 1.4688 3.5679 5.875-0.7136v-5.7086z"/>
   <path d="m179.12 115.43l-7.3437 2.8543 1.4688 3.5679 5.875-0.7136v-5.7086z"/>
   <path d="m187.93 122.21l-7.3438 2.8543 1.4688 3.5679 5.875-0.7136v-5.7087z"/>
   <path d="m190.87 115.08l-7.3438 2.8543 1.4688 3.5679 5.875-0.7136v-5.7086z"/>
   <path d="m191.6 137.56l-7.3438 2.8543 1.4688 3.5679 5.875-0.7136v-5.7086z"/>
   <path d="m209.23 119.36l-7.3438 2.8543 1.4688 3.5679 5.875-0.7136v-5.7086z"/>
   <path d="m215.1 129.35l-7.3437 2.8543 1.4688 3.5679 5.875-0.7136v-5.7086z"/>
   <path d="m234.93 115.43l-7.3438 2.8543 1.4688 3.5679 5.875-0.7136v-5.7086z"/>
   <path d="m243.75 122.21l-7.3438 2.8543 1.4688 3.5679 5.875-0.7136v-5.7086z"/>
   <path d="m246.68 115.08l-7.3437 2.8543 1.4688 3.5679 5.875-0.7136v-5.7086z"/>
   <path d="m251.82 111.15l-7.3438 2.8543 1.4688 3.5679 5.875-0.7136v-5.7086z"/>
   <path d="m286.34 135.77l-7.3438 2.8543 1.4688 3.5679 5.875-0.7136v-5.7086z"/>
   <path d="m257.7 107.23l-7.3438 2.8543 1.4688 3.5679 5.875-0.7136v-5.7086z"/>
   <path d="m258.43 98.308l-7.3437 2.8543 1.4688 3.5679 5.875-0.7136v-5.7086z"/>
   <path d="m279 114.36l-7.3438 2.8543 1.4688 3.5679 5.875-0.7136v-5.7086z"/>
   <path d="m270.18 97.952l-7.3437 2.8543 1.4687 3.5679 5.875-0.7136v-5.7086z"/>
   <path d="m118.9 101.88l-7.3437 2.8543 1.4688 3.5679 5.875-0.7136v-5.7086z"/>
   <path d="m127.71 108.66l-7.3437 2.8543 1.4688 3.5679 5.875-0.7136v-5.7086z"/>
   <path d="m136.53 108.66l-7.3438 2.8543 1.4688 3.5679 5.875-0.7136v-5.7086z"/>
   <path d="m105.68 95.454l-7.3437 2.8543 1.4688 3.5679 5.875-0.7136v-5.7086z"/>
   <path d="m114.5 102.23l-7.3437 2.8543 1.4688 3.5679 5.875-0.7136v-5.7086z"/>
   <path d="m118.9 103.66l-7.3437 2.8543 1.4688 3.5679 5.875-0.7136v-5.7086z"/>
   <path d="m147.54 85.464l-7.3437 2.8543 1.4687 3.5679 5.875-0.7136v-5.7086z"/>
   <path d="m157.09 122.93l-7.3438 2.8543 1.4688 3.5679 5.875-0.7136v-5.7086z"/>
   <path d="m159.29 85.107l-7.3437 2.8543 1.4688 3.5679 5.875-0.7136v-5.7086z"/>
   <path d="m93.933 117.58l-7.3437 2.8543 1.4688 3.5679 5.875-0.7136v-5.7086z"/>
   <path d="m113.76 118.65l-7.3438 2.8543 1.4688 3.5679 5.875-0.7136v-5.7087z"/>
   <path d="m107.15 120.79l-7.3438 2.8543 1.4688 3.5679 5.875-0.7136v-5.7086z"/>
   <path d="m129.18 122.57l-7.3437 2.8543 1.4688 3.5679 5.875-0.7136v-5.7086z"/>
   <path d="m138 129.35l-7.3437 2.8543 1.4688 3.5679 5.875-0.7136v-5.7086z"/>
   <path d="m140.93 122.21l-7.3437 2.8543 1.4688 3.5679 5.875-0.7136v-5.7086z"/>
   <path d="m251.82 126.14l-7.3438 2.8543 1.4688 3.5679 5.875-0.7136v-5.7086z"/>
   <path d="m260.64 132.92l-7.3438 2.8543 1.4688 3.5679 5.875-0.7136v-5.7086z"/>
   <path d="m263.57 125.78l-7.3437 2.8543 1.4688 3.5679 5.875-0.7136v-5.7086z"/>
   <path d="m263.57 133.99l-7.3438 2.8543 1.4688 3.5679 5.875-0.7136v-5.7086z"/>
   <path d="m278.26 125.07l-7.3438 2.8543 1.4688 3.5679 5.875-0.7136v-5.7086z"/>
   <path d="m232.73 130.06l-7.3437 2.8543 1.4687 3.5679 5.875-0.7136v-5.7086z"/>
  </g>
  <path d="m17.166 250l-3.9047-4.6949-1.5619-19.562 10.152-3.9125-0.781-7.0424 26.552 4.6949 57.009 3.13 11.714-2.3474 14.838 10.955 26.552 1.565 35.923 3.1299 46.076-3.1299 24.99-7.8249 32.8-0.7825 48.418-0.7825 17.962-3.9125 6.2476 7.8249 1.5619 14.085-10.152 14.867-40.609 14.085-65.599 10.172h-55.447l-54.666-3.13-57.009-7.0424-21.086-4.6949-49.98-15.65z" fill="#7f0000"/>
  <path d="m12.902 225.14l2.952 19.719 48.216 17.747 13.776 3.9438-6.8879-23.662 18.696 0.9859 30.504 2.9578 7.8719 6.9015 3.9359 15.775 3.9359 3.9437h9.8399v-16.761l8.8559-10.845 23.616 3.9438 1.968 6.9016 19.68-2.9578 17.712-1.9719 1.968 11.831-1.968 9.8593-0.984 3.9438h15.744l-0.984-17.747 8.8559-7.8875 1.968 2.9578h5.9039l5.9039-3.9438 9.8399 9.8594 3.936 9.8594 6.8879 4.9297 42.312-4.9297 35.424-12.817 5.9039-3.9438 10.824-16.761-0.9839-12.817-3.936-3.9438-18.696 2.9578-18.696 0.9859-61.007-0.9859-25.584 8.8734-47.232 3.9438-63.959-4.9297-12.792-12.817-9.8399 3.9437-62.975-1.9719-21.648-5.9156 0.984 6.9016-9.8399 3.9437z" fill-opacity=".531"/>
  <path d="m21.774 186.92l0.984 18.733 26.568 18.733 15.744-1.9719-12.792-9.8594-5.9039-14.789-4.92-6.9016-9.8399 0.9859-9.8399-4.9297z" fill-opacity=".25"/>
  <path d="m84.717 258.5l22.632 4.9297 30.504 2.9578 22.632-1.9719 3.936 9.8594 7.8719-8.8735 6.8879-0.9859 11.808 5.9156 13.776-7.8875 7.8719-2.9578 9.8399 9.8594 9.8399-6.9016 8.8559-0.9859 19.68 5.9156 15.744-4.9297s3.9359 0.98593 6.8879 4.9297c2.952 3.9437 8.8559 13.803 8.8559 13.803l1.968-9.8594 10.824-3.9437 1.968 11.831 4.92 16.761-0.984-14.789 3.9359-7.8875v-9.8594l8.8559 0.986 7.8719-1.9719 9.8399-0.9859 6.8879 3.9437 5.9039-3.9437 7.8719-1.9719h2.952l-58.055-0.986-84.623-1.9719-83.639-0.9859-47.232-0.9859-24.6-0.9859-15.744-0.9859-11.808-4.9297-8.8559-7.8875-0.984 6.9016-3.936 2.9578 11.808 1.9719 2.952 12.817 13.776-2.9578 4.9199 2.9578 3.936-1.9719 6.8879 3.9438 1.968 7.8875 4.9199-5.9156 3.936-2.9578 1.968 2.9578 1.968-9.8594z" fill-opacity=".469"/>
  <g fill-opacity=".287">
   <path d="m43.39 274.27l-5.9039 5.9156-1.968 10.845-5.9039 4.9297 17.712-0.986 2.952-8.8734 5.9039 8.8734 5.9039-9.8593-2.952-8.8735-15.744-1.9719z"/>
   <path d="m98.493 285.12l-1.968 9.8593 5.9039 8.8734 3.9359-9.8594 6.8879 4.9297 4.9199-4.9297 9.8399 7.8875-8.8559-19.719-9.8399-10.845-9.8399-4.9297-7.8719-0.9859 7.8719 9.8594-0.984 9.8594z"/>
   <path d="m177.21 293.01l-0.984 10.845 2.952 10.845 6.8879-8.8735 6.8879-10.845 5.9039 3.9438 7.8719 4.9297 7.8719 2.9578 3.936-2.9578 0.984-3.9437-13.776-10.845-10.824-11.831-13.776-1.9719 2.952 7.8875-2.952 8.8734-9.8399-2.9578 5.9039 3.9438z"/>
  </g>
  <path d="m253.96 287.09v13.803l12.792 3.9438-3.936 6.9015 2.952 9.8594 1.968 6.9015 4.92-10.845 4.9199-10.845 8.8559 1.9719 1.968-15.775 6.8879-6.9016-11.808 2.9578-4.92 6.9016-11.808-11.831-0.984-7.8875-9.8399-0.9859 5.904 6.9016-0.984 5.9156-6.8879-0.9859z" fill-opacity=".409"/>
  <g fill-opacity=".459">
   <path d="m329.73 284.13l9.8399-4.9297 6.8879 7.8875 6.8879-9.8594 10.824-7.8875-2.952 9.8594 1.968 2.9578-2.952 8.8734-4.92 1.9719 3.936 9.8593-1.968 10.845-8.8559-13.803-8.8559-0.986-1.968 7.8875-7.8719 1.9719-5.9039 3.9438-8.8559-1.9719h-12.792l-10.824 6.9016 2.952-10.845 10.824-2.9578h11.808l5.9039-8.8734-3.9359-5.9156-0.984-9.8594 5.904 3.9438 2.9519-9.8594 2.952 10.845z"/>
   <path d="m93.573 273.29l-6.8879-1.9719-8.8559 2.9578-3.936 7.8875h-5.9039l-3.936 4.9297v8.8734l4.9199 2.9578-1.968 7.8875 8.8559 0.986 6.8879-5.9156 3.936 5.9156 5.9039-3.9438 5.9039 6.9015-1.968-13.803-2.952-4.9297 2.952-7.8875v-5.9156l-2.952-4.9297z"/>
  </g>
  <path d="m31.582 262.44l-8.8559-1.9719-6.8879 3.9437-1.968 1.9719 6.8879 2.9578 4.92 0.9859-2.952 6.9016-3.936 4.9297-0.984 5.9156 10.824-1.9719 4.92-7.8875 1.968-7.8875-3.9359-7.8875z" fill-opacity=".487"/>
  <path d="m160.48 277.23l-7.8719-7.8875-12.792 1.9719-21.648-1.9719h-5.904l13.776 10.845 0.984 9.8594 4.92 9.8594 4.9199 6.9015-0.984 3.9437 3.936-7.8875 5.9039 5.9156 6.8879-6.9015 0.984-6.9016 5.9039 8.8734 4.9199-2.9578 9.8399 12.817-0.984-13.803-4.9199-10.845-1.968-3.9437 5.9039-2.9578 2.952-6.9016-6.8879 1.9719h-7.8719z" fill-opacity=".287"/>
  <path d="m203.78 273.29l2.952-6.9016 3.936 4.9297 3.936-1.9719 4.92 5.9156 7.8719-1.9719 7.8719-3.9438h11.808l6.8879 8.8734-8.8559-0.9859-2.9519 7.8875 3.9359 7.8875-1.968 7.8875v5.9156l-8.8559 0.986-5.9039-3.9438-3.936-11.831-7.8719 0.986-6.8879-7.8875-5.9039-4.9297-0.984-6.9016z" fill-opacity=".447"/>
  <g fill-opacity=".287">
   <path d="m306.12 293.01l-0.984-7.8875-2.952-8.8735-4.9199 1.9719 0.984 8.8735-3.9359 6.9015-2.952 6.9016 0.984 3.9438 6.8879-2.9578 3.9359-2.9578 2.952-5.9156z"/>
   <path d="m284.47 278.22l-2.952-5.9156-5.9039-3.9438-4.92 0.9859 2.952 8.8734 0.984 5.9156 0.984 2.9578 6.8879-3.9438 1.968-4.9297z"/>
   <path d="m287.42 315.68l-6.8879-3.9438-3.9359 4.9297-2.952 6.9015-2.952 7.8875 4.92-1.9719 8.8559-6.9015 2.952-6.9016z"/>
  </g>
  <path d="m253.96 306.81l-0.984 7.8875 6.8879 6.9015-0.984-7.8875 0.984-6.9015h-5.9039z" fill-opacity=".438"/>
  <path d="m186.97 207.2v22.692h43.733l24.209-2.3475-34.362-10.955-22.647-7.8249-10.933-1.565z" fill="#ba3d33"/>
  <g fill="#eb3d33">
   <path d="m21.29 206.81l1.5619-26.077 47.638 14.901 57.79 4.6566 53.104-0.9313 8.5904 1.8626 0.781 22.351v5.5879l-41.39 0.9313-26.552-3.7252-3.9047 3.7252-38.266-2.7939-31.238-0.9313-28.114-19.558z"/>
   <path d="m190.72 208.58l44.871 16.952 17.628 5.0856 9.6153 1.6952h84.935l25.641-6.7808 7.2115-11.019-7.2115-23.733-22.436 12.714-25.641 2.5428-31.25-0.8476-19.231-4.238-38.461-2.5428-22.436-8.476-16.026-2.5428-11.218 15.257 8.0128 7.6284-4.0064-1.6952z"/>
  </g>
  <path d="m22.166 186l-3.9047-4.6949-1.5619-19.562 10.152-3.9125-0.7809-7.0424 26.552 4.6949 57.009 3.13 11.714-2.3474 14.838 10.955 26.552 1.565 35.923 3.1299 46.076-3.1299 24.99-7.8249 32.8-0.7825 48.418-0.7825 17.962-3.9125 6.2476 7.8249 1.5619 14.085-10.152 14.867-40.609 14.085-65.599 10.172h-55.447l-54.666-3.13-57.009-7.0424-21.086-4.6949-49.98-15.65z" fill="#7f0000"/>
  <path d="m20.902 165.14l2.952 19.719 48.216 17.747 13.776 3.9438-6.8879-23.662 18.696 0.9859 30.504 2.9578 7.8719 6.9016 3.9359 15.775 3.9359 3.9437h9.8399v-16.761l8.8559-10.845 23.616 3.9438 1.968 6.9016 19.68-2.9578 17.712-1.9719 1.968 11.831-1.968 9.8593-0.984 3.9438h15.744l-0.984-17.747 8.856-7.8875 1.968 2.9578h5.9039l5.9039-3.9438 9.8399 9.8594 3.936 9.8594 6.8879 4.9297 42.312-4.9297 35.424-12.817 5.9039-3.9438 10.824-16.761-0.9839-12.817-3.936-3.9438-18.696 2.9578-18.696 0.9859-61.007-0.9859-25.584 8.8734-47.232 3.9438-63.959-4.9297-12.792-12.817-9.8399 3.9437-62.975-1.9719-21.648-5.9156 0.984 6.9016-9.8399 3.9437z" fill-opacity=".531"/>
 </g>
</svg>
