<?xml version="1.0" encoding="UTF-8"?>
<svg viewBox="0 0 640 480" xmlns="http://www.w3.org/2000/svg">
 <g fill-rule="evenodd" stroke-width=".5">
  <g fill="#003f7f">
   <path d="m13.86 13.207l0.315-0.075v0.3752l-0.063 0.1876q-0.094501 0.1876-0.189 0.1876h-0.063001l-0.063 0.1876q-0.094501 0.1876-0.189 0.1876h-0.063002l-0.4725 0.3752q-0.47251 0.3752-0.47251 0.75039v0.3752l-1.197 1.3132q-1.1655 1.3132-3.6856 6.0031-2.52 4.69-3.9376 9.7551-1.4175 5.0652-1.7325 7.5039-0.315 2.4388-0.1575 7.6915 0.1575 5.2528 1.4175 10.693 1.26 5.4404 3.6226 11.068 2.3625 5.6279 6.3001 11.819 3.9376 6.1907 7.3081 10.618 3.402 4.3898 11.844 12.757 8.4106 8.3294 12.978 14.145 4.5676 5.8155 8.5051 12.569 3.9376 6.7535 6.9301 14.07 2.9925 7.3163 4.5676 13.132 1.575 5.8155 1.89 8.2543t0.1575 7.6915q-0.1575 5.2528-1.26 8.2543-1.1025 3.0016-2.142 4.0521-1.008 1.013-2.7405 0.82544-1.7325-0.18761-2.3625-0.7504-0.63001-0.56279-0.69301-0.67535l-0.0945-0.075-0.1575 0.3752q-0.1575 0.3752-1.7325 3.3768t-4.9456 6.6785q-3.402 3.6394-7.0246 5.5154t-7.7176 2.0636q-4.095 0.18761-6.4576-0.93799-2.3625-1.1256-3.6856-3.2642-1.3545-2.1761-1.512-4.0521l-0.1575-1.876 0.1575-0.3752 0.1575-0.3752 0.0945-0.075 0.063-0.1125 0.063-0.1125 0.0945-0.075 0.0945-0.075 0.063-0.1126 0.315-0.1876q0.315-0.18761 2.0475-0.18761t4.7251 0.18761q2.9925 0.18759 4.4101-0.18761 1.4175-0.3752 4.8826-2.6264 3.465-2.2512 5.7331-4.9901 2.2995-2.7014 3.402-6.2658t1.26-9.3799-0.78751-11.819q-0.94501-6.0031-2.835-12.382-1.89-6.3783-5.5126-13.882-3.6226-7.5039-9.0721-15.383-5.4181-7.8791-5.7331-7.8791t-6.5521-8.4419q-6.2056-8.4419-10.08-14.895-3.843-6.4909-6.4261-12.982-2.6145-6.4534-3.717-11.706l-1.1025-5.2527-0.1575-1.6884-0.1575-1.6884h-0.1575v-6.3784h0.1575l0.1575-1.6884 0.1575-1.6884 0.1575-1.1256q0.1575-1.1256 0.94501-4.69t3.15-8.8171q2.3625-5.2528 4.7881-8.5545l2.457-3.2642 0.7875-0.938q0.78751-0.93799 1.1025-1.0506z" stroke="#211d1e"/>
   <path d="m40.636 0.075v-0.075039h4.095l2.142 1.1256q2.1105 1.1256 2.205 1.2006 0.063 0.11256 0.126 0.22512l0.0945 0.075 0.1575 0.5628 0.1575 0.5628v0.3752l-0.1575 0.7504-0.1575 0.7504-0.0945 0.075-0.063 0.1126-1.26 1.3132q-1.26 1.3132-9.7651 6.0031-8.5051 4.69-11.907 7.4289-3.3705 2.7014-6.3631 5.8906-2.9925 3.1892-4.41 6.1907-1.4175 3.0016-2.205 6.5659-0.78751 3.5644-0.63001 8.0667 0.1575 4.5024 1.4175 8.6295 1.26 4.1272 3.5595 7.9542 2.268 3.8645 5.1031 7.2413 2.835 3.3768 7.4026 6.9411 4.5676 3.5644 8.3476 5.2528t8.6626 2.814 12.128 0.938q7.2451-0.1876 11.025-1.3132 3.78-1.1256 6.9301-3.1892 3.15-2.0636 5.9221-5.3278 2.7405-3.3017 4.4731-6.8661 1.7325-3.5644 2.3625-6.3783 0.63-2.814 0.4725-7.5039-0.1575-4.69-1.4175-8.2543-1.26-3.5644-2.9295-6.1157-1.638-2.5138-1.953-2.6264-0.315-0.075039-1.4175-1.5008-1.1025-1.3882-4.8826-3.827-3.78-2.4388-5.8276-3.0016-2.0475-0.5628-2.6775-0.75039l-0.63-0.1876-1.1025-0.1876-1.1025-0.1876 2.9925 0.1876q2.9925 0.1876 6.8356 1.951 3.8746 1.8009 6.2371 3.8645t3.087 3.0016q0.69302 0.93799 1.008 0.93799 0.315 0 2.457 4.1272 2.1105 4.1272 2.898 7.5039 0.78751 3.3768 0.63 7.8791-0.1575 4.5024-1.26 8.2543-1.1025 3.752-3.465 7.8791-2.3625 4.1272-5.4181 7.2038-3.087 3.1141-6.3946 4.9901-3.3075 1.876-7.5601 3.0016t-9.1351 1.5008q-4.8826 0.3752-10.868-0.3752-5.9851-0.75039-8.5051-1.5008-2.52-0.75039-3.15-0.93799l-0.63-0.1876-0.4725-0.1876-0.4725-0.1876-0.315-0.1876-0.315-0.1876h-0.94501l0.063 0.1126 0.0945 0.075 0.0945 0.075 0.063 0.1126 0.063 0.1126 0.0945 0.075 0.0945 0.075 0.063 0.1126 0.315 0.1876 0.315 0.1876 0.063 0.1126 0.0945 0.075 0.0945 0.075 0.063 0.1126 0.063 0.1126 0.0945 0.075 0.0945 0.075 0.063 0.1126 6.6151 4.8776q6.6151 4.8776 6.9301 5.0652l0.315 0.1876 0.315 0.1876 0.315 0.1876 0.315 0.1876 0.315 0.1876v0.1876l-0.315 0.075-0.315 0.1126 0.063 0.1126 0.0945 0.075 0.0945 0.075 0.063 0.1126-0.063 0.1125-0.0945 0.075-0.0945 0.0751-0.063 0.1125-0.063 0.1126-0.0945 0.075-0.0945 0.1876-0.063 0.1876-0.315-0.075-0.315-0.1126-0.315-0.1876-0.315-0.1876-0.315-0.1876q-0.31501-0.18759-5.4181-3.827l-5.1346-3.6769-0.0945-0.075-0.063-0.1126-0.315-0.1876-0.315-0.1876-0.063-0.1126-0.0945-0.075-0.0945-0.075-0.063-0.1126-0.315-0.1876-0.315-0.1876-0.063-0.1126-0.0945-0.075-0.0945-0.075-0.063-0.1126-0.063-0.1126-0.0945-0.075v0.75039l0.0945 0.075 0.063 0.1126 0.063 0.1126 0.0945 0.075 0.0945 0.075 0.063 0.1126 0.063 0.1126 0.0945 0.075 0.0945 0.075 0.063 0.1126 0.063 0.1126 0.0945 0.075 0.0945 0.075 0.063 0.1126 0.063 0.1126 0.0945 0.075 0.0945 0.075 0.063 0.1126 0.063 0.1126 0.0945 0.075 0.0945 0.075 0.063 0.1126 4.6621 4.2397q4.6306 4.2022 4.7251 4.3898l0.063 0.1876h-0.063q-0.094501 0-0.18901 0.3752l-0.063 0.3752-0.315 0.075-0.315 0.1126h0.94501l0.315-0.1126 0.315-0.075-0.063 0.3752-0.0945 0.3752-0.0945 0.7504-0.063 0.7504h-0.63001l-0.315-0.0751-0.315-0.1125-0.063-0.1126-0.0945-0.075-0.0945-0.075-0.063-0.1126-0.315-0.1876q-0.31501-0.1876-7.4026-6.5659t-11.655-11.631q-4.5676-5.2528-9.2926-12.382-4.7251-7.1287-6.9931-11.143-2.2995-4.0521-3.717-8.9297t-1.575-11.631q-0.1575-6.7535 0.94501-11.444 1.1025-4.69 3.15-8.8171 2.0475-4.1272 5.8276-8.6295l3.78-4.5024 0.0945-0.075 0.063-0.1126 0.315-0.1876 0.315-0.1876 0.063-0.1126 0.0945-0.075 0.0945-0.075 0.063-0.1126 0.063-0.1126 0.0945-0.075 0.0945-0.075 0.063-0.1126 0.315-0.1126 0.315-0.075v-0.7504l-0.315 0.075-0.315 0.1126-0.315 0.1876-0.315 0.1876-0.063 0.1126-0.0945 0.075-0.0945 0.075-0.063 0.1126-0.315 0.1876-0.315 0.1876-0.063 0.1126-0.0945 0.075-0.0945 0.075q-0.063 0.11256-0.5355 0.3752l-0.4725 0.3002-0.063 0.1876q-0.094501 0.1876-0.189 0.1876h-0.063l-0.1575 0.075-0.1575 0.1126v0.3752l-0.315 0.1126-0.315 0.075-0.063 0.1876-0.0945 0.1876h-0.1575l-0.063 0.1876-0.0945 0.1876h-0.1575l-0.063 0.1876-0.0945 0.1876h-0.4725l0.063-0.3752 0.0945-0.3752 0.0945-0.075 0.063-0.1126 0.063-0.1126 0.0945-0.075 0.0945-0.075 0.063-0.1126 0.315-0.1876 0.315-0.1876 0.063-0.1126 0.0945-0.075 0.0945-0.075 0.063-0.1126 0.063-0.1126 0.0945-0.075 0.0945-0.075 0.063-0.1126 4.4101-3.0016q4.41-3.0016 8.3476-4.5024t7.8751-2.2512q3.9376-0.75039 3.9376-0.86295zm-19.215 7.5039q0.315-0.075039 0.315 0.30016t-0.315 0.45024q-0.315 0.11256-0.315-0.26264t0.315-0.48776zm12.978 84.419q0.094501-0.075035 0.189 0 0.063 0.11256-0.094501 0.11256t-0.094501-0.11256z" stroke="#211d1f"/>
  </g>
  <path d="m0 22.512v-22.512h40.636v0.075039q0 0.11256-1.26 0.30016t-6.7726 1.6884-9.9226 4.1272-5.1976 3.6394l-0.7875 1.0505-0.063 0.1876q-0.094501 0.1876-0.189 0.1876h-0.063l-0.063 0.1876q-0.094501 0.1876-0.189 0.1876h-0.063002l-0.063-0.3752-0.0945-0.3752-0.0945 0.3752-0.063 0.3752-0.1575 0.075q-0.1575 0.11256-0.1575 0.22512v0.07504l-0.063 0.1876-0.0945 0.1876h-0.1575l-0.063 0.3752q-0.094501 0.3752-0.81901 0.93799l-0.693 0.5628-0.063-0.1876q-0.094501-0.1876-0.189 0l-0.063 0.1876-0.1575 0.075q-0.1575 0.11256-0.1575 0.22512v0.075039h-0.315q-0.315 0-0.315 0.3752v0.3752l-1.638 1.6884q-1.6695 1.6884-4.1896 6.3783-2.52 4.69-3.9376 9.3799-1.4175 4.69-1.575 5.6279-0.1575 0.93799-0.315 2.0636l-0.1575 1.1256-0.1575 1.6884-0.1575 1.6884h-0.1575v-22.512z" fill="#fefefe" stroke="#fefefe"/>
  <g fill="#003f7f">
   <g stroke="#211d1f">
    <path d="m124.11 55.341l0.1575-3.1892 0.1575 0.7504 0.1575 0.7504 0.1575 0.938 0.1575 0.938 0.1575 0.938q0.1575 0.93799 0.63 4.5024t0.4725 11.819q0 8.2543-0.94501 12.382-0.94502 4.1272-2.6775 7.8791-1.7325 3.752-5.0401 7.6915-3.3075 3.9396-6.9931 6.4909-3.717 2.5138-8.2846 4.2022t-10.868 1.876q-6.3001 0.1876-11.025-0.75039l-4.7251-0.938-0.63-0.1125-0.63-0.0751-0.063-0.1876-0.0945-0.1876h-0.7875l-0.1575-0.075q-0.1575-0.11256-3.6225-1.4257l-3.465-1.3132-0.4725-0.1876-0.4725-0.1876-0.4725-0.1876-0.4725-0.1876-0.063-0.1125-0.0945-0.075h-0.1575v-0.1876h1.26l0.63 0.1876 0.63 0.1876 7.7176 1.6884q7.7176 1.6884 14.175 1.5008 6.4576-0.1876 10.395-1.5008 3.9376-1.3132 6.1426-3.1892t3.528-3.8645q1.3545-1.951 1.9845-4.2022 0.63001-2.2512 0.47251-7.8791t-1.26-9.9427-1.26-4.69q-0.1575-0.37519-0.315-0.75039l-0.1575-0.3752-0.1575-0.3752-0.1575-0.3752-0.0945-0.075-0.063-0.1126-0.063-0.1126-0.0945-0.075-0.1575-0.3752-0.1575-0.3752-0.0945-0.075-0.063-0.1126h0.63001l0.315 0.1876 0.315 0.1876 0.4725 0.1876 0.4725 0.1876 0.945 0.3752q0.94502 0.3752 3.78 0.1876t4.7881-1.8009q1.9845-1.5758 3.2445-4.5774t1.7325-5.8155q0.4725-2.814 0.63-6.0031z"/>
    <path d="m117.18 316.37v-0.075043l0.252 0.1876q0.2205 0.18762 0.315 0.26266l0.063 0.1125 0.063 0.1125 0.0945 0.075 0.0945 0.075 0.063 0.1125 0.063 0.1125 0.0945 0.0751 0.0945 0.075 0.063 0.1125 0.063 0.1125 0.0945 0.075 0.0945 0.075 0.063 0.1125-0.063 0.1125-0.0945 0.075v1.1256l0.0945 0.3752 0.063 0.3752-5.4181 10.13q-5.4496 10.13-9.3871 19.51-3.9376 9.3799-6.1426 17.259t-2.9925 13.695q-0.78751 5.8156-0.63001 11.631 0.1575 5.8156 1.1025 10.506 0.94502 4.69 0.94502 6.3784v1.6884l-0.1575 0.3752-0.1575 0.3752-0.0945 0.075-0.063 0.1126-0.063 0.1126-0.0945 0.075-0.0945 0.075-0.063 0.1126h-1.89l-0.315-0.1876-0.315-0.1876-0.315-0.1876q-0.315-0.18759-0.69301-0.67535-0.4095-0.45023-1.827-2.7014t-2.52-5.8156-1.26-10.13q-0.15751-6.5659 0.78751-11.256 0.94502-4.6899 3.6225-12.944 2.6775-8.2543 7.2451-18.009 4.5676-9.7551 11.718-21.574l7.1821-11.819 0.1575-0.075q0.1575-0.11258 0.1575-0.22513z"/>
   </g>
   <path d="m134.44 283.46l5.4181-8.4419v0.75039l0.315-0.075 0.315-0.1125 0.063-0.1126 0.0945-0.075 0.0945 0.075 0.063 0.1126 0.063 0.1125 0.0945 0.075 0.0945 0.075 0.063 0.1125 0.315 0.1876 0.315 0.1876 0.7875 0.1126 0.7875 0.075-6.2371 11.444q-6.2056 11.444-8.5681 18.009-2.3625 6.566-2.835 8.2543-0.4725 1.6884-0.567 1.6884h-0.69301l0.063-0.1876 0.0945-0.1876v-0.56278q0-0.5628-0.1575-0.37521l-0.1575 0.1876-0.1575 0.3752-0.1575 0.3752-0.1575 0.3752-0.1575 0.3752-2.6775 7.6915q-2.6775 7.6915-4.2526 15.008-1.575 7.3164-1.89 10.318t-0.1575 10.318q0.1575 7.3163 0.4725 9.1923 0.31501 1.876 0.40951 2.6264l0.063 0.7504-0.378 0.7504q-0.4095 0.7504-0.504 1.1256l-0.063 0.3752h-0.063004q-0.094498 0-0.252-0.5628l-0.1575-0.5628-0.1575-0.7504-0.1575-0.7504-0.1575-0.7504q-0.1575-0.7504-0.4725-3.0016t-0.4725-8.2543 0.1575-9.1923 1.4175-9.0047 3.78-14.445l2.6775-8.6295 0.1575-0.3752 0.1575-0.3752 0.1575-0.3752 0.1575-0.3752 0.1575-0.3752 0.1575-0.3752 0.0945-0.3752 0.063-0.3752-0.315 0.075-0.315 0.1126-0.063 0.1125-0.0945 0.075-0.1575 0.3752-0.1575 0.3752-0.0945 0.075-0.063 0.1125-0.063 0.1125-0.0945 0.075-0.315 0.5628q-0.31501 0.56278-0.47251 0.93799l-0.1575 0.3752-0.0945 0.075-0.063 0.1125-0.063 0.1126-0.0945 0.075-0.1575 0.3752-0.1575 0.3752h-0.1575l-0.063-0.3752-0.0945-0.3752v-1.1256l0.0945-0.075 0.063-0.1125-0.063-0.1125-0.0945-0.075-0.0945-0.075-0.063-0.1125-0.063-0.1125-0.0945-0.075-0.0945-0.0751-0.063-0.1125-0.063-0.1125-0.0945-0.075-0.0945-0.075-0.063-0.1125-0.4725-0.1125-0.4725-0.075v-0.75039l0.315-0.075q0.315-0.11255 1.1025-1.4258l0.7875-1.3132 0.063-0.1126 0.0945-0.075 0.0945-0.075 0.063-0.1125 0.063-0.1125 0.0945-0.075 0.1575-0.3752 0.1575-0.3752 0.0945-0.075 0.063-0.1125 0.063-0.1125 0.0945-0.075 0.0945-0.075 0.063-0.1126 0.063-0.1125 0.0945-0.075 0.0945-0.075 0.063-0.1125h-0.63001l-0.063 0.1125-0.0945 0.075-0.0945 0.075-0.063 0.1125-0.063 0.1126-0.0945 0.075-0.0945 0.075-0.063 0.1125-0.063 0.1125-0.0945 0.075-0.0945 0.075-0.063 0.1125-0.063 0.1125-0.0945 0.0751-0.0945 0.075-0.063 0.1125-0.063 0.1125-0.0945 0.075-0.0945 0.075-0.063 0.1125-0.063 0.1125-0.0945 0.075-11.34 13.507q-11.34 13.507-16.223 20.448-4.8826 6.9411-9.2926 14.82-4.41 7.8791-7.4026 15.383-2.9925 7.5039-4.5676 14.07-1.575 6.5659-2.0475 10.318-0.4725 3.752-0.315 12.382 0.1575 8.6295 1.7325 16.509 1.575 7.8791 3.78 14.257 2.205 6.3783 4.9456 11.931 2.772 5.5154 4.5046 8.4044 1.7325 2.9265 2.0475 2.9265t0.315 0.56278q0 0.5628 0.31501 0.5628 0.315 0 0.315 0.37521 0 0.37518 1.827 2.2512 1.7955 1.876 2.583 2.814 0.78751 0.93799 0.88201 1.3132l0.063 0.3752h0.63v0.18759l0.063 0.1126 0.0945 0.075 0.0945 0.075 0.063 0.1126 0.1575 0.1126 0.1575 0.075v0.37521h0.1575l0.0945 0.3752 0.063 0.3752-0.315-0.075-0.315-0.1126-0.063-0.1126-0.0945-0.075-0.0945-0.075-0.063-0.1126-0.063-0.1126-0.0945-0.075-0.0945-0.075-0.063-0.1126-0.063-0.1126-0.0945-0.075-0.0945-0.075-0.063-0.1126-0.315-0.1876-0.315-0.1876-0.063-0.1125q-0.094498-0.075043-1.134-1.3882-1.008-1.3132-1.638-1.3882-0.63-0.11258-1.1025-0.97556-0.4725-0.82541-0.78751-0.82541-0.315 0-0.37801-0.37518-0.094498-0.37521-0.504-0.5628-0.37801-0.18759-3.276-4.6899-2.9295-4.5024-5.9221-10.506-2.9925-6.0031-5.1976-12.757-2.205-6.7535-3.6225-14.257-1.4175-7.5039-1.4175-17.634t1.7325-18.385q1.7325-8.2543 4.5676-15.946 2.835-7.6915 6.9301-15.383t10.49-17.071q6.3631-9.3799 6.6781-9.3799t0.37801-0.37518q0.094498-0.37521 8.3791-10.43l8.2531-10.018 0.063-0.1125 0.0945-0.075 0.0945-0.075 0.063-0.1125 0.063-0.1125 0.0945-0.075 0.0945-0.075 0.063-0.1125 0.063-0.1126 0.0945-0.075 0.0945-0.075 0.063-0.1125 0.063-0.1125 0.0945-0.075 0.0945-0.075 0.063-0.1125 0.063-0.1125 0.0945-0.075 0.0945-0.0751 0.063-0.1125 0.063-0.1125 0.0945-0.075v-0.75039l-0.0945 0.075-0.063 0.1125-0.063 0.1126-0.0945 0.075-0.0945 0.075-0.063 0.1125-0.063 0.1125-0.0945 0.075-0.0945 0.075-0.063 0.1125-0.063 0.1125-0.0945 0.0751-0.0945 0.075-0.063 0.1125-0.315 0.1876-0.315 0.1876-0.063 0.1125-0.0945 0.075-0.0945 0.075-0.063 0.1126-0.063 0.1125-0.0945 0.075-4.5045 4.0521q-4.4731 4.0146-4.8511 4.2772-0.4095 0.30017-0.504 0.37521l-0.063 0.1125-0.063 0.1125-0.0945 0.075-0.0945 0.075-0.063 0.1125-0.315 0.1876-0.315 0.1876-0.315 0.1876-0.315 0.1876-0.063 0.1125-0.0945 0.075-0.0945 0.075-0.063 0.1126-0.063 0.1125-0.0945 0.075-0.0945 0.075-0.063 0.1125-0.063 0.1125-0.0945 0.075-0.0945 0.075-0.063 0.1125h-0.63001l-0.063-0.1125-0.0945-0.075-0.0945-0.075-0.063-0.1125 0.063-0.1125 0.0945-0.075 0.0945-0.075 0.063-0.1125 0.315-0.1876 0.315-0.1876 0.315-0.1125 0.315-0.075v-0.75039l0.315-0.075 0.315-0.1125 0.063-0.1125 0.0945-0.075 0.0945-0.075 0.063-0.1126 0.315-0.1876q0.315-0.18759 0.94501-0.7504 0.63001-0.56278 6.4576-6.0031 5.8276-5.4404 13.136-14.182 7.3396-8.7046 12.789-17.146zm-19.719 26.902q0.094498-0.075043 0.189 0 0.063004 0.11258-0.094498 0.11258t-0.094498-0.11258z" stroke="#212020"/>
   <path d="m110.88 168.46l-0.4725-1.1256 0.4095 0.7504q0.37801 0.7504 1.386 1.876 1.0395 1.1256 1.764 2.4388 0.69301 1.3132 1.008 1.3132 0.315 0 4.032 6.9411 3.6856 6.9411 5.2606 12.569t1.89 8.2543 0.1575 8.4419-1.26 10.506q-1.1025 4.69-2.835 8.4419-1.7325 3.752-3.8431 6.6785-2.142 2.889-5.1346 5.1402-2.9925 2.2512-6.4576 3.5644-3.465 1.3132-7.5601 1.3132t-7.2451-1.3132-5.3551-3.1892q-2.205-1.876-4.1581-5.1402-1.9845-3.3017-2.9295-6.8661-0.94501-3.5644-0.94501-8.8171 0-5.2528 0.94501-8.2543 0.94502-3.0016 2.9295-6.0782 1.953-3.1141 4.9456-5.5529 2.9925-2.4388 5.1976-3.3768 2.205-0.93799 4.7251-0.7504 2.52 0.18761 2.835 0.3752l0.315 0.1876 0.315 0.1876 0.315 0.1876 0.063 0.1125 0.0945 0.075 0.0945 0.075 0.063 0.1125 0.063 0.1126 0.0945 0.075 0.0945 0.075 0.063 0.1125 0.063 0.1126 0.0945 0.075v1.876l-0.0945 0.075-0.063 0.1125-0.063 0.1126-0.0945 0.075-0.0945 0.075-0.063 0.1125-0.063 0.1126-0.0945 0.075-0.0945 0.075-0.063 0.1125-0.063 0.1126q-0.094498 0.075043-3.78 2.4013-3.717 2.3637-6.3001 5.1027-2.6145 2.7014-4.032 6.0782t-1.575 7.5039q-0.1575 4.1272 0.63 6.9411 0.78751 2.814 2.6775 5.4403 1.89 2.6264 4.5046 4.0521 2.583 1.3882 7.6231 1.3882t8.0326-1.5008 5.0401-3.3768q2.0475-1.876 4.1895-5.1402 2.1105-3.3017 3.6856-7.9917 1.575-4.6899 2.205-9.1923t0.1575-10.13q-0.4725-5.628-2.52-12.006-2.0475-6.3783-5.9221-13.432l-3.8431-7.0162-0.063-0.1126q-0.094498-0.075043-0.252-0.26263-0.1575-0.18761-0.63-1.3132z" stroke="#211e1f"/>
   <path d="m114.82 154.66l-0.1575-0.4502h0.315q0.315 0 1.26 1.2006 0.94502 1.2381 6.4576 6.8661t10.616 12.269q5.1346 6.6785 8.5996 13.057 3.465 6.3783 5.8276 12.944 2.3625 6.5659 3.78 13.695 1.4175 7.1287 1.7325 10.506 0.315 3.3768 0.1575 10.693-0.1575 7.3163-1.575 15.008-1.4175 7.6915-4.032 14.895-2.583 7.2413-3.276 8.6295-0.7245 1.4257-0.882 1.8009l-0.1575 0.3752-0.0945 0.1876-0.063 0.1876h-0.1575l-0.0945 0.1876-0.063 0.1876v0.18759h-0.63l-0.063-0.1125-0.0945-0.075-0.0945-0.075-0.063-0.1125-0.063-0.1125-0.0945-0.075-0.0945-0.075-0.063-0.1126-0.315-0.1876-0.315-0.1876-0.063-0.1125-0.0945-0.075-0.0945-0.075-0.063-0.1125-0.063-0.1126-0.0945-0.075-0.0945 0.075-0.063 0.1126-0.315 0.1125-0.315 0.075v-0.75039l0.063-0.3752 0.0945-0.3752 0.0945-0.075q0.063004-0.11255 0.44102-0.97549 0.4095-0.82544 3.2445-9.455 2.835-8.6295 4.2526-15.758 1.4175-7.1287 1.575-13.695 0.1575-6.5659-0.315-10.881-0.4725-4.3148-2.0475-11.068-1.575-6.7535-4.0951-13.132-2.52-6.3783-5.9851-12.194-3.4651-5.8155-7.8751-11.444-4.4101-5.628-10.08-11.444l-5.6701-5.8155-0.0945-0.075-0.063-0.1126-0.063-0.1125-0.0945-0.075-0.0945-0.075-0.063-0.1126-0.063-0.1125-0.0945-0.075-0.0945-0.075-0.063-0.1125v-0.1876l0.1575-0.075 0.1575-0.1125 0.7875-0.1876 0.7875-0.1876-0.063-0.1126q-0.094498-0.075043 0.2205-0.63783l0.315-0.5628-0.0945-0.075q-0.063004-0.11256-0.2205-0.60031zm0.5355 1.5008l0.0945-0.075 0.0945 0.075 0.063 0.1125h-0.1575q-0.15751 0-0.094498-0.11255z" stroke="#221f20"/>
   <path d="m174.67 337.68l1.7325-1.3132h0.4725q0.4725 0-1.1025 1.3132t-2.583 2.9265q-1.0395 1.5758-1.0395 4.5774t0.85052 4.4273q0.882 1.3882 0.94501 1.5008l0.0945 0.075 0.0945 0.075 0.063 0.1125 0.315 0.1876 0.315 0.1876 0.063 0.1125 0.0945 0.075 0.0945 0.075 0.063 0.1125 0.315 0.1876 0.315 0.1876h1.575l0.063-0.1125 0.0945-0.0751v-1.1256l-0.0945-0.075-0.063-0.1125-0.063-0.1125-0.0945-0.075-0.0945-0.075-0.063-0.1125-0.063-0.1126q-0.094498-0.075043-0.252-0.45023-0.1575-0.37521-0.1575-3.1892t1.0395-3.6394q1.008-0.86295 2.898-0.86295t3.087 1.2382q1.1655 1.2006 1.4805 3.4518t-0.4725 4.1272q-0.78751 1.876-2.583 3.0766-1.827 1.2381-4.1896 1.4257-2.3625 0.18762-3.6225-0.56278t-2.457-2.889q-1.1655-2.1761-1.1655-5.5529t1.1655-5.5529q1.197-2.1386 2.9295-3.4518z" stroke="#201f20"/>
   <path d="m46.558 104.3h0.063l17.01 11.931q17.01 11.894 27.972 19.885 10.931 7.9542 16.695 12.757 5.7331 4.765 5.7961 4.8776l0.0945 0.075 0.0945 0.075 0.063 0.1126 0.1575 0.1125 0.1575 0.075v0.1876l0.1575 0.1125 0.1575 0.075 0.063 0.3752 0.0945 0.3752 0.1575 0.3752 0.1575 0.3752 0.0945 0.075 0.063 0.1125-0.315 0.1876-0.315 0.1876-0.945 0.1876-0.945 0.1876-0.1575 0.1125-0.1575 0.075-0.315-0.075-0.315-0.1125-0.063-0.1126q-0.094498-0.075043-7.0246-5.8906-6.9301-5.8155-21.641-16.396-14.742-10.618-25.925-18.872l-11.183-8.2543v-0.93799h0.63001l-0.063-0.3752q-0.094501-0.37519-0.63001-0.67535l-0.567-0.2626 0.315-0.1126 0.315-0.075 0.063-0.3752q0.094505-0.3752 0.18901-0.3752zm67.852 51.852q0.094498-0.075043 0.189 0 0.063004 0.11255-0.094498 0.11255t-0.094498-0.11255z" stroke="#222021"/>
   <path d="m115.23 372.94l0.378-0.7504 1.953 5.628q1.9845 5.6279 4.9141 10.58 2.898 4.9901 6.5206 9.3049 3.6225 4.3148 7.7176 7.5039 4.0951 3.1892 8.0326 5.0652 3.9376 1.876 8.5051 2.814 4.5676 0.93799 9.2926 0.7504 4.7251-0.18759 9.9226-1.6884 5.1976-1.5008 9.2296-4.2398 4.0006-2.7014 6.2056-4.9526t2.2995-2.6264q0.063004-0.37518 0.37801-0.37518 0.315 0 3.087-5.0652 2.7405-5.0652 4.158-9.0047 1.4175-3.9396 1.575-4.8776l0.1575-0.938 0.1575-0.5628 0.1575-0.5628 0.0945-0.5628 0.063-0.5628 0.1575-0.075 0.1575-0.1126 0.063-0.1125 0.0945-0.075v1.5008l-0.1575 1.3132q-0.1575 1.3132-0.4725 2.2512-0.315 0.93799-2.0475 5.8156-1.7325 4.8775-4.473 9.5675-2.772 4.6899-3.087 4.6899t-0.37801 0.37518q-0.094498 0.37521-2.457 2.6264t-6.3631 4.8026q-4.032 2.5138-8.2846 3.827t-10.868 1.5008q-6.6151 0.18759-10.553-0.7504-3.9376-0.93799-7.7176-2.814-3.7801-1.876-8.1901-5.2528t-7.8121-7.3914q-3.3705-4.0521-6.3631-9.3049-2.9925-5.2528-4.7251-9.9427l-1.7325-4.6899-0.0945-0.5628-0.063-0.5628 0.063-0.3752q0.094498-0.37518 0.504-1.1256z" stroke="#282728"/>
   <path d="m57.173 300.08l-1.7325-0.3002-0.063-0.3752q-0.094501-0.37521-0.40951-0.93799-0.315-0.5628-0.315-3.3768v-3.9396l-0.0945-0.075-0.063-0.1125h-0.94502l-0.315 0.1876-0.315 0.1876-0.063 0.1125-0.0945 0.075-0.0945 0.075-0.063 0.1125-0.063 0.1125-0.0945 0.075-0.0945 0.075-0.063 0.1126-0.063 0.1125-0.0945 0.075-0.0945 0.075-0.063 0.1125-0.063 0.1125-0.0945 0.075-0.63 1.6884q-0.63 1.6884-0.4725 3.9396t1.197 3.827q1.008 1.6133 2.1105 2.3637t1.4175 0.93799l0.315 0.1876 0.4725 0.1876 0.4725 0.1876 0.7875 0.1876 0.7875 0.1876h-2.835l-0.4725-0.1876q-0.4725-0.18762-2.3625-1.5758-1.89-1.4258-2.772-3.4893-0.85051-2.0636-1.008-4.5024-0.1575-2.4388 0.63-4.5024 0.78751-2.0636 2.142-3.2642 1.323-1.2382 3.6856-1.4258 2.3625-0.18759 3.78 0.5628 1.4175 0.7504 2.6145 2.5138 1.1655 1.8009 1.323 3.4893t-0.4725 3.0016q-0.63001 1.3132-2.1105 2.3637-1.512 1.013-3.2445 0.7504z" stroke="#221e20"/>
   <path d="m124.36 316.29l0.063-0.3752h0.63001l-0.378 3.0016q-0.4095 3.0016-0.252 7.3164t1.1025 6.5659q0.94501 2.2512 2.4255 3.4518 1.512 1.2382 4.347 1.6133 2.835 0.37518 3.465 0.18759l0.63-0.1876 0.315-0.1125 0.315-0.075-0.063 0.3752-0.0945 0.3752-0.0945 0.075-0.063 0.1125-0.063 0.1125-0.0945 0.075-0.315 1.1256q-0.315 1.1256-0.1575 3.1892t1.197 3.6394q1.008 1.6133 1.4805 1.9885 0.4725 0.37521 0.78751 0.5628l0.315 0.1876 0.315 0.1876 0.315 0.1876 0.315 0.1876 0.315 0.1876 0.315 0.1876 0.315 0.1876h-2.52l-0.945-0.1876q-0.94501-0.18759-1.575-0.37518-0.63-0.18759-3.6225-1.876t-4.9456-4.4273q-1.9845-2.7014-3.2446-6.641-1.26-3.9396-1.4175-9.7551-0.15751-5.8156 0.315-8.2543l0.4725-2.4388 0.0945-0.3752z" stroke="#212020"/>
   <path d="m147.17 461.57l-0.063 0.1126-0.063 0.1126-0.0945 0.075-0.1575 0.5628-0.1575 0.5628-0.1575 0.3752-0.1575 0.3752-0.1575 0.3752-0.1575 0.3752-0.0945 0.075-0.063 0.1126-0.063 0.1126-0.0945 0.075v-1.1256l0.1575-0.3752 0.1575-0.3752 0.1575-0.3752 0.1575-0.3752 0.1575-0.5628q0.1575-0.5628 0.78752-3.3768 0.63-2.814 0.63-7.8791 0-5.0652-0.94501-6.9411-0.94502-1.876-2.6145-3.0766-1.638-1.2382-4.7881-1.6133l-3.15-0.3752 0.063-0.1126 0.0945-0.075 0.4725-1.1256q0.47252-1.1256 0.31502-3.9396t-1.953-4.9901q-1.827-2.1386-2.6145-2.5138-0.78751-0.37518 1.26 0 2.0475 0.37521 5.1346 1.9886 3.0555 1.5758 4.9456 3.827 1.89 2.2512 3.15 5.628 1.26 3.3767 1.7325 6.0031t0.315 6.566-1.1025 7.8791q-0.94501 3.9396-1.0395 4.0146z" stroke="#221f20"/>
   <path d="m118.79 5.703l1.827-1.3882h0.47251q0.4725 0-1.3545 2.1386-1.7955 2.1761-2.583 4.6149-0.78751 2.4388-0.63 5.6279 0.1575 3.1892 1.008 3.8645 0.88201 0.63783 2.2995 0.52527 1.4175-0.075039 2.205-3.1516 0.78751-3.1141 1.1655-3.752 0.4095-0.67535 0.504-0.75039l0.063-0.1126 0.063-0.1126 0.0945-0.075 0.0945-0.075 0.063-0.1126 0.063-0.1126 0.0945-0.075 0.0945-0.075 0.063-0.1126 0.063-0.1126 0.0945-0.075 0.0945-0.075 0.063-0.1126h1.89l0.063 0.1126 0.0945 0.075 0.1575 0.3752 0.1575 0.3752 0.0945 0.075 0.063 0.1126 0.063 0.1126 0.0945 0.075 0.1575 0.5628q0.1575 0.56279 0.4725 2.6264 0.31502 2.0636-0.2205 4.0146-0.56701 1.9885-1.827 2.9265-1.26 0.93799-3.465 1.1256-2.205 0.1876-3.843-0.82543-1.6695-1.0506-2.772-3.1141-1.1025-2.0636-1.1025-5.4404t1.1025-5.8155q1.1025-2.4388 2.898-3.8645z" stroke="#231f21"/>
   <path d="m163.96 37.52v-0.3752l0.0945 0.075 0.063 0.1126 0.063 0.1126 0.0945 0.075 0.1575 0.3752 0.1575 0.3752 0.1575 0.5628 0.1575 0.5628 0.1575 0.3752 0.1575 0.3752 0.1575 0.5628q0.1575 0.56279 0.63 2.4388 0.47252 1.876 1.26 7.5039 0.78751 5.628 0.4725 12.194-0.315 6.5659-1.26 11.068-0.94502 4.5024-2.9925 9.7551-2.0475 5.2528-4.8826 9.7551-2.835 4.5024-6.6151 8.2543-3.78 3.752-7.7806 6.3033-4.0321 2.5138-10.017 4.765-5.9851 2.2512-13.86 3.752-7.8751 1.5008-17.325 1.6884-9.4501 0.1876-17.325-1.3132-7.8751-1.5008-15.278-4.1272-7.4026-2.6264-13.388-5.8155l-5.9851-3.1892-0.315-0.1876-0.315-0.1876-0.315-0.1876-0.315-0.1876v-0.1876l0.063-0.1876 0.0945-0.1876 0.0945-0.075 0.063-0.1126 0.063-0.1125 0.0945-0.0751 0.0945-0.075 0.063-0.1125-0.063-0.1126-0.0945-0.075-0.0945-0.075-0.063-0.1126 0.315-0.1126 0.315-0.075 0.315 0.075 0.315 0.1126 0.315 0.1876 0.315 0.1876 4.5676 2.2512q4.5676 2.2512 4.8826 2.1386 0.31501-0.07505 0.31501 0.30015t0.94501 0.45024q0.94501 0.11256 1.1025 0.2251l0.1575 0.0751h0.1575l0.0945 0.075 0.063 0.1125 0.4725 0.1876 0.4725 0.1876 0.4725 0.1876 0.4725 0.1876 3.465 1.3132q3.465 1.3132 3.6225 1.4257l0.1575 0.075v0.1876l0.252-0.1126q0.2205-0.075043 0.315-0.075043h0.2205l0.0945 0.1876 0.063 0.1876v0.07505q0 0.11255 0.4725 0.30015l0.4725 0.1876 7.4026 1.6884q7.4026 1.6884 11.025 2.0636 3.6225 0.3752 12.128 0.1876 8.5051-0.1876 15.435-1.6884 6.9301-1.5008 12.285-3.752 5.3551-2.2512 10.143-5.5154 4.8196-3.3017 7.9696-6.6785t5.9851-8.0667q2.835-4.69 4.8826-10.506 2.0475-5.8155 2.9925-12.006 0.94502-6.1907 0.78752-12.194-0.1575-6.0031-0.78752-9.7551-0.63-3.752-0.78751-4.5024l-0.1575-0.7504-0.1575-0.7504-0.1575-0.7504-0.1575-0.5628-0.1575-0.5628v-0.3752z" stroke="#252324"/>
  </g>
 </g>
</svg>
